# xmcd CD database file
#
# Track frame offsets:
#	180
#	40856
#	62515
#	85412
#
# Disc length: 1461 seconds
#
# Revision: 0
# Processed by: cddbd v1.5.2PL0 Copyright (c) Steve Scherf et al.
# Submitted via: CDex 1.70beta2
#
DISCID=2a05b304
DTITLE=Zauberberg III - Zauberberg III
DYEAR=1994
DGENRE=Jazz
TTITLE0=Resolution
TTITLE1=Lyrical Movements
TTITLE2=Once
TTITLE3=Here's That Rainy Day
EXTD=YEAR: 1994
EXTT0=
EXTT1=
EXTT2=
EXTT3=
PLAYORDER=
